<svg width="120" height="60" xmlns="http://www.w3.org/2000/svg">
 <g>
  <title>background</title>
  <rect x="-1" y="-1" width="40.709677" height="21.354839" id="canvas_background" fill="none"/>
 </g>

 <g>
  <title>Layer 1</title>
  <g id="svg_1">
   <text fill="#ffffff" stroke-width="0" stroke-opacity="null" x="12.68774" y="52.37466" id="svg_9" font-size="6" font-family="Georgia, Times, 'Times New Roman', serif" text-anchor="start" xml:space="preserve" transform="rotate(-0.0032663203310221434 74.75245666510057,29.128852844236594) matrix(1.7353705146537592,0,0,2.6653285233316217,8.697868815538163,-105.05158478228975) " stroke="null" font-weight="bold" font-style="italic">Bikes Web Store</text>
   <path fill-rule="evenodd" clip-rule="evenodd" d="m22.24124,27.23315l0,-18.36877c-5.26165,0.23102 -10.02913,2.25561 -13.6373,5.44351l13.6373,12.92525l0,0.00001zm15.39584,-13.15445l-13.87908,13.15445l0,-18.38539c5.33362,0.11672 10.1868,2.07538 13.87908,5.23094zm-15.39584,16.62508l-13.89687,13.1713c3.63759,3.32218 8.50806,5.44004 13.89687,5.67671l0,-18.84801zm1.51677,18.86459l0,-18.86459l14.14285,13.4045c-3.72339,3.28967 -8.6813,5.34058 -14.14285,5.46009zm-2.5893,-21.31866l-13.63729,-12.92528c-3.36352,3.41981 -5.49964,7.9383 -5.7434,12.92528l19.38069,0zm0,1.43759l-19.39823,0c0.12315,5.05507 2.18971,9.6549 5.51911,13.1544l13.87912,-13.1544zm18.50194,-15.7516l-6.81195,6.4072l-9.10069,8.86515l16.03825,15.15016c-4.18302,4.10239 -10.04907,6.65325 -16.54386,6.65325c-12.70501,0 -23.00452,-9.76171 -23.00452,-21.80341c0,-12.0417 10.29952,-21.80341 23.00452,-21.80341c6.42997,0 12.24384,2.5003 16.41825,6.53106z" fill="#d31313" id="svg_2" stroke="null"/>
  </g>
 </g>
</svg>